<?xml version="1.0" standalone="no"?>
<!DOCTYPE svg PUBLIC "-//W3C//DTD SVG 20010904//EN"
 "http://www.w3.org/TR/2001/REC-SVG-20010904/DTD/svg10.dtd">
<svg version="1.0" xmlns="http://www.w3.org/2000/svg"
 width="700.000000pt" height="700.000000pt" viewBox="0 0 700.000000 700.000000"
 preserveAspectRatio="xMidYMid meet">
<metadata>
Created by potrace 1.14, written by Peter Selinger 2001-2017
</metadata>
<g transform="translate(0.000000,700.000000) scale(0.100000,-0.100000)"
fill="#000000" stroke="none">
<path d="M2337 6993 c-2 -5 -4 -530 -3 -1168 l1 -1159 1145 -1 c630 0 1154 1
1166 3 l21 4 0 1164 0 1164 -1163 0 c-640 0 -1165 -3 -1167 -7z"/>
<path d="M588 6411 c-1 -3 -2 -266 -3 -583 l-1 -578 583 0 583 0 0 583 0 584
-580 -1 c-319 0 -581 -2 -582 -5z"/>
<path d="M5250 5833 l0 -583 583 0 584 0 -1 583 -1 582 -582 1 -583 1 0 -584z"/>
<path d="M2 3501 l3 -1166 1157 -1 c637 0 1161 -4 1165 -7 3 -4 6 -529 6
-1167 l0 -1160 1167 0 1167 0 0 1160 c0 638 3 1163 6 1167 4 3 529 6 1167 6
l1160 0 0 1167 0 1167 -1167 -1 -1167 -1 0 -1165 -1 -1165 -1166 -1 -1165 0 1
1150 c0 633 -1 1158 -3 1167 -3 14 -113 16 -1168 16 l-1164 0 2 -1166z"/>
<path d="M2926 4074 c-13 -12 -15 -1138 -3 -1151 12 -11 1157 -10 1158 2 0 6
2 268 2 583 1 375 -1 572 -8 573 -5 1 -264 2 -574 3 -390 1 -568 -2 -575 -10z"/>
<path d="M584 1167 l0 -584 583 0 583 1 0 583 0 583 -583 0 -583 0 0 -583z"/>
<path d="M5252 1168 l3 -583 578 -1 c410 -1 577 2 579 10 0 6 2 269 3 584 l1
572 -583 0 -583 0 2 -582z"/>
</g>
</svg>
